<?xml version="1.0" encoding="UTF-8"?>
<svg width="31px" height="11px" viewBox="0 0 31 11" version="1.1" xmlns="http://www.w3.org/2000/svg" xmlns:xlink="http://www.w3.org/1999/xlink">
    <!-- Generator: Sketch 43 (38999) - http://www.bohemiancoding.com/sketch -->
    <title>new_icon</title>
    <desc>Created with Sketch.</desc>
    <defs></defs>
    <g id="Page-1" stroke="none" stroke-width="1" fill="none" fill-rule="evenodd">
        <g id="电信工程-首页" transform="translate(-1162.000000, -799.000000)">
            <g id="news_2" transform="translate(380.000000, 587.000000)">
                <g id="new_icon" transform="translate(782.000000, 212.000000)">
                    <rect id="Rectangle-14" fill="#CD0118" x="0" y="0" width="31" height="11"></rect>
                    <path d="M11.7519531,3.4765625 L11.1601562,8.31054688 L8.41503906,4.80664062 L8.02246094,8 L7.3515625,8 L7.94042969,3.23046875 L10.6855469,6.72851562 L11.0839844,3.4765625 L11.7519531,3.4765625 Z M15.1708984,3.4765625 L15.0947266,4.10058594 L13.4335938,4.10058594 L13.2900391,5.27246094 L14.9511719,5.27246094 L14.8808594,5.85253906 L13.2197266,5.85253906 L13.0322266,7.37597656 L14.6933594,7.37597656 L14.6142578,8 L12.2851562,8 L12.8417969,3.4765625 L15.1708984,3.4765625 Z M21.6835938,3.4765625 L19.3164062,8.19335938 L18.4199219,5.02929688 L16.8408203,8.24609375 L15.4521484,3.4765625 L16.1376953,3.4765625 L16.984375,6.56738281 L18.5751953,3.32128906 L19.4863281,6.48535156 L20.9658203,3.4765625 L21.6835938,3.4765625 Z" id="NEW" fill="#FFFFFF"></path>
                </g>
            </g>
        </g>
    </g>
</svg>