<?xml version="1.0" encoding="UTF-8"?>
<svg width="20px" height="20px" viewBox="0 0 20 20" version="1.1" xmlns="http://www.w3.org/2000/svg" xmlns:xlink="http://www.w3.org/1999/xlink">
    <!-- Generator: Sketch 43 (38999) - http://www.bohemiancoding.com/sketch -->
    <title>项目_icon</title>
    <desc>Created with Sketch.</desc>
    <defs></defs>
    <g id="Page-1" stroke="none" stroke-width="1" fill="none" fill-rule="evenodd">
        <g id="电信工程-首页" transform="translate(-990.000000, -1464.000000)">
            <g id="项目展示" transform="translate(970.000000, 1442.000000)">
                <g id="项目_icon" transform="translate(20.000000, 22.000000)">
                    <circle id="Oval-2" fill="#CA0118" cx="10" cy="10" r="10"></circle>
                    <g id="Group" transform="translate(6.000000, 6.000000)" fill="#FFFFFF">
                        <path d="M3.6866002,3.12523949 C3.6866002,3.4900958 3.38780841,3.78888759 3.0229521,3.78888759 L0.663648094,3.78888759 C0.298791789,3.78888759 0,3.4900958 0,3.12523949 L0,0.665337243 C0,0.300480938 0.298791789,0.00168914956 0.663648094,0.00168914956 L3.0229521,0.00168914956 C3.38780841,0.00168914956 3.6866002,0.300480938 3.6866002,0.665337243 L3.6866002,3.12523949 L3.6866002,3.12523949 Z" id="Shape"></path>
                        <path d="M3.6866002,7.33635191 C3.6866002,7.70120821 3.38780841,8 3.0229521,8 L0.663648094,8 C0.298791789,8 0,7.70120821 0,7.33635191 L0,4.87695015 C0,4.51159335 0.298791789,4.21280156 0.663648094,4.21280156 L3.0229521,4.21280156 C3.38780841,4.21280156 3.6866002,4.51159335 3.6866002,4.87644966 L3.6866002,7.33635191 L3.6866002,7.33635191 Z" id="Shape"></path>
                        <path d="M7.99831085,3.12523949 C7.99831085,3.4900958 7.69951906,3.78888759 7.33466276,3.78888759 L4.97535875,3.78888759 C4.61050244,3.78888759 4.31171065,3.4900958 4.31171065,3.12523949 L4.31171065,0.665337243 C4.31171065,0.300480938 4.61050244,0.00168914956 4.97535875,0.00168914956 L7.33466276,0.00168914956 C7.69951906,0.00168914956 7.99831085,0.300480938 7.99831085,0.665337243 L7.99831085,3.12523949 L7.99831085,3.12523949 Z" id="Shape"></path>
                        <path d="M7.99831085,7.33635191 C7.99831085,7.70120821 7.69951906,8 7.33466276,8 L4.97535875,8 C4.61050244,8 4.31171065,7.70120821 4.31171065,7.33635191 L4.31171065,4.87695015 C4.31171065,4.51209384 4.61050244,4.21330205 4.97535875,4.21330205 L7.33466276,4.21330205 C7.70001955,4.21330205 7.99831085,4.51209384 7.99831085,4.87695015 L7.99831085,7.33635191 L7.99831085,7.33635191 Z" id="Shape"></path>
                    </g>
                </g>
            </g>
        </g>
    </g>
</svg>