<?xml version="1.0" encoding="UTF-8"?>
<svg width="20px" height="20px" viewBox="0 0 20 20" version="1.1" xmlns="http://www.w3.org/2000/svg" xmlns:xlink="http://www.w3.org/1999/xlink">
    <!-- Generator: Sketch 43 (38999) - http://www.bohemiancoding.com/sketch -->
    <title>合作伙伴_icon</title>
    <desc>Created with Sketch.</desc>
    <defs></defs>
    <g id="Page-1" stroke="none" stroke-width="1" fill="none" fill-rule="evenodd">
        <g id="电信工程-首页" transform="translate(-400.000000, -2179.000000)" fill="#CD0118">
            <g id="合作伙伴" transform="translate(380.000000, 2157.000000)">
                <g id="合作伙伴_icon" transform="translate(20.000000, 22.000000)">
                    <path d="M10.0011776,0 C4.48423945,0 0.00235525025,4.4818842 0.00235525025,9.99882237 C0.00235525025,15.5157605 4.48423945,19.9976447 10.0011776,19.9976447 C15.5181158,19.9976447 20,15.5157605 20,9.99882237 C20,4.4818842 15.5181158,0 10.0011776,0 Z M6.63473994,11.7674583 C6.53424926,11.8076546 6.37346418,11.7574092 6.25287537,11.6468695 C6.18253189,11.5664769 6.13228656,11.4760353 6.12223749,11.3855937 C6.12223749,11.3453974 6.12223749,11.275054 6.16243376,11.2348577 L7.5190579,9.9284789 C7.5492051,9.8983317 7.59945044,9.88828263 7.63964671,9.88828263 C7.74013739,9.88828263 7.85067713,9.93852797 7.93106968,10.0289696 C8.00141315,10.1093621 8.05165849,10.1998037 8.06170756,10.2902453 C8.06170756,10.3203925 8.06170756,10.3605888 8.04160942,10.4007851 L8.02151129,10.4208832 L6.66488714,11.727262 C6.66488714,11.7373111 6.65483808,11.7473602 6.63473994,11.7674583 L6.63473994,11.7674583 Z M7.52910697,12.6618253 C7.49895976,12.6718744 7.46881256,12.6819235 7.44871443,12.6819235 C7.34822375,12.6819235 7.237684,12.6316781 7.15729146,12.5412365 C7.03670265,12.4105986 7.00655545,12.2598626 7.04675172,12.169421 L7.06684985,12.1493229 L8.42347399,10.8429441 L8.46367026,10.8027478 C8.49381747,10.7926987 8.52396467,10.7826497 8.54406281,10.7826497 C8.64455348,10.7826497 8.75509323,10.832895 8.83548577,10.9233366 C8.90582924,11.0037291 8.95607458,11.0941708 8.96612365,11.1846124 C8.96612365,11.2147596 8.96612365,11.2549558 8.94602552,11.2951521 L8.92592738,11.3152502 L7.56930324,12.621629 L7.52910697,12.6618253 L7.52910697,12.6618253 Z M8.42347399,13.5662414 C8.39332679,13.5762905 8.36317959,13.5863395 8.34308145,13.5863395 C8.24259078,13.5863395 8.13205103,13.5360942 8.05165849,13.4456526 C7.93106968,13.3150147 7.90092247,13.1542296 7.94111874,13.0738371 L7.96121688,13.053739 L9.31784102,11.7473602 L9.35803729,11.7071639 C9.37813543,11.6971148 9.40828263,11.6870658 9.43842983,11.6870658 C9.53892051,11.6870658 9.64946026,11.7373111 9.7298528,11.8277527 C9.85044161,11.9583906 9.88058881,12.1191757 9.84039254,12.1995682 L9.82029441,12.2196663 L8.46367026,13.5260451 C8.4536212,13.5360942 8.43352306,13.5461433 8.42347399,13.5662414 Z M9.34798822,14.4405103 C9.31784102,14.4706575 9.26759568,14.4807066 9.22739941,14.4807066 C9.12690873,14.4807066 9.01636899,14.4304612 8.93597645,14.3400196 C8.86563297,14.2596271 8.81538763,14.1691855 8.80533857,14.0787439 C8.80533857,14.0485967 8.80533857,14.0084004 8.8254367,13.9682041 L8.84553484,13.948106 L10.202159,12.6417272 C10.2222571,12.6316781 10.2323062,12.61158 10.2423553,12.5914818 C10.2624534,12.5814328 10.2926006,12.5713837 10.3227478,12.5713837 C10.4232385,12.5713837 10.5337782,12.621629 10.6141708,12.7120707 C10.6845142,12.7924632 10.7347596,12.8829048 10.7448086,12.9733464 C10.7448086,13.0135427 10.7448086,13.0838862 10.7046124,13.1240824 L9.34798822,14.4405103 L9.34798822,14.4405103 Z M10.7548577,14.5108538 C10.5639254,14.5912463 10.3729931,14.5108538 10.202159,14.390265 L10.9357409,13.6868302 L10.94579,13.79737 C10.9658881,13.9280079 10.9759372,14.4204122 10.7548577,14.5108538 L10.7548577,14.5108538 Z M13.7595289,11.3353484 C13.5987439,11.5162316 13.3877134,11.5865751 13.327419,11.5363297 L13.2872228,11.5061825 L13.2972718,11.4961335 L11.8100098,10.0088714 L11.4180962,10.4007851 L12.8953091,11.877998 C12.8953091,12.018685 12.875211,12.2699117 12.7445731,12.4105986 C12.6541315,12.5010402 12.5234936,12.5412365 12.3526595,12.5512856 L12.3727576,12.5311874 L10.795054,10.9635329 L10.4031403,11.3554465 L11.8904024,12.8427085 L11.8904024,12.8628067 C11.8904024,12.8628067 11.9305986,13.1441806 11.7798626,13.3150147 C11.6793719,13.4356035 11.4884396,13.4757998 11.237213,13.4757998 L11.1467713,13.4757998 C11.2673602,13.3250638 11.3276546,13.1341315 11.3075564,12.9231011 C11.2874583,12.7120707 11.1869676,12.5010402 11.0261825,12.3302061 C10.8553484,12.1593719 10.6342689,12.0488322 10.4131894,12.0287341 C10.3930913,11.8177036 10.3026497,11.6066732 10.1318155,11.42579 C9.96098135,11.2549558 9.73990186,11.1544652 9.51882237,11.124318 C9.49872424,10.9132875 9.39823356,10.692208 9.23744848,10.531423 C9.06661433,10.3605888 8.84553484,10.2500491 8.62445535,10.2299509 C8.60435721,10.0189205 8.50386654,9.79784102 8.34308145,9.63705594 C8.00141315,9.28533857 7.44871443,9.22504416 7.13719333,9.51646712 L6.47395486,10.1596075 C4.69526987,8.88337586 5.51929342,7.0343474 5.54944063,6.97405299 C6.23277723,5.73801766 7.30802748,5.59733072 7.61954858,5.58728165 C8.49381747,5.54708538 9.22739941,6.12993131 9.51882237,6.4113052 C8.54406281,7.36596663 7.45876349,8.56180569 7.39846909,8.63214917 L7.66979392,8.87332679 C8.03156035,9.41597645 8.91587831,10.0993131 10.2524043,9.5868106 C10.6041217,9.44612365 11.2070658,8.89342493 11.5286359,8.57185476 C12.0210402,9.06425908 13.2972718,10.3304416 13.7796271,10.8228459 C13.9906575,11.0037291 13.8600196,11.2248086 13.7595289,11.3353484 L13.7595289,11.3353484 Z M13.7896762,10.0088714 C13.0158979,9.22504416 11.7497154,7.97895976 11.7396663,7.9689107 L11.538685,7.76792934 L11.3377036,7.9689107 C10.9558391,8.36082434 10.3126987,8.95371933 10.061472,9.05421001 C8.99627085,9.46622179 8.40337586,8.90347399 8.18229637,8.60200196 C8.85558391,7.87846909 10.2825515,6.36105986 10.9658881,5.83850834 C11.3276546,5.55713445 12.0109912,5.34610402 12.7043768,5.49684004 C13.4078116,5.64757605 14.0107556,6.13998037 14.4428656,6.92380765 C14.4830618,6.98410206 15.2065947,8.51156035 13.7896762,10.0088714 L13.7896762,10.0088714 Z" id="Shape"></path>
                </g>
            </g>
        </g>
    </g>
</svg>