<?xml version="1.0" encoding="UTF-8"?>
<svg width="20px" height="20px" viewBox="0 0 20 20" version="1.1" xmlns="http://www.w3.org/2000/svg" xmlns:xlink="http://www.w3.org/1999/xlink">
    <!-- Generator: Sketch 43 (38999) - http://www.bohemiancoding.com/sketch -->
    <title>解决方案_icon</title>
    <desc>Created with Sketch.</desc>
    <defs></defs>
    <g id="Page-1" stroke="none" stroke-width="1" fill="none" fill-rule="evenodd">
        <g id="电信工程-首页" transform="translate(-400.000000, -1919.000000)">
            <g id="解决方案" transform="translate(380.000000, 1897.000000)">
                <g id="解决方案_icon" transform="translate(20.000000, 22.000000)">
                    <circle id="Oval-3" fill="#CC061D" cx="10" cy="10" r="10"></circle>
                    <path d="M8.40132896,14.42865 L11.598671,14.42865 L11.598671,13.6427 L8.40132896,13.6427 L8.40132896,14.42865 Z M9.2003847,16 L10.7990557,16 L10.7990557,15.21405 L9.2003847,15.21405 L9.2003847,16 Z M10,5 C7.79254139,5 6.00304262,6.75891652 6.00304262,8.92865 C6.00308553,10.163751 6.5955284,11.3265528 7.60171366,12.0664 L7.60171366,12.8573 L12.3977268,12.8573 L12.3977268,12.0664 C13.4038936,11.3267832 13.9963552,10.1641485 13.9963978,8.9292 C13.9966947,7.88721253 13.5757779,6.88780231 12.8262757,6.15090273 C12.0767736,5.41400316 11.0601045,4.99999996 10,5 Z M11.598671,11.67865 C11.598671,11.8955322 11.4197963,12.07135 11.1991432,12.07135 C10.97849,12.07135 10.7996153,11.8955322 10.7996153,11.67865 L10.7996153,10.5 L9.2003847,10.5 L9.2003847,11.67865 C9.2003847,11.8955322 9.02150998,12.07135 8.80085683,12.07135 C8.58020368,12.07135 8.40132896,11.8955322 8.40132896,11.67865 L8.40132896,10.1073 C8.40132896,9.8906 8.58038907,9.7146 8.80085683,9.7146 L11.1991432,9.7146 C11.4201705,9.7146 11.598671,9.8906 11.598671,10.1073 L11.598671,11.67865 L11.598671,11.67865 Z" id="Shape" fill="#FFFFFF"></path>
                </g>
            </g>
        </g>
    </g>
</svg>