<?xml version="1.0" encoding="UTF-8"?>
<svg width="20px" height="20px" viewBox="0 0 20 20" version="1.1" xmlns="http://www.w3.org/2000/svg" xmlns:xlink="http://www.w3.org/1999/xlink">
    <!-- Generator: Sketch 43 (38999) - http://www.bohemiancoding.com/sketch -->
    <title>企业文化</title>
    <desc>Created with Sketch.</desc>
    <defs></defs>
    <g id="Page-1" stroke="none" stroke-width="1" fill="none" fill-rule="evenodd">
        <g id="电信工程-首页" transform="translate(-400.000000, -1008.000000)">
            <g id="乙方文化-copy" transform="translate(380.000000, 987.000000)">
                <g id="企业文化" transform="translate(20.000000, 21.000000)">
                    <ellipse id="Oval-2" fill="#CA0118" cx="10" cy="9.91661106" rx="10" ry="9.81132075"></ellipse>
                    <g transform="translate(5.384615, 3.076923)" id="Shape" fill-rule="nonzero" fill="#FFFFFF">
                        <path d="M8.95528713,8.99038462 L6.78533587,11.1698718 L6.78533587,13.0769231 L4.88662852,13.0769231 L4.88662852,10.0801282 L6.24284806,7.35576923 L6.78533588,7.62820512 L6.51409198,8.71794871 L6.24284807,9.5352564 L7.87031152,8.44551282 L8.68404324,6.26602563 L9.22653106,6.26602563 L8.95528713,8.99038462 Z M7.06064844,6.09003205 L7.06064844,6.09003205 C7.0603772,6.09030448 7.06010595,6.09057692 7.05983471,6.09084935 C6.82249629,6.32051282 6.55423607,6.51721154 6.26047892,6.67331731 C6.25505404,6.67631411 6.24935791,6.67876603 6.24393305,6.68121795 C6.15171012,6.72971154 6.05731724,6.77520834 5.95994067,6.81525641 C5.9433948,6.82206731 5.92603518,6.8272436 5.90948931,6.83378206 C5.82269125,6.86838141 5.73453699,6.90134617 5.64448401,6.92913463 C5.61057851,6.9394872 5.57558805,6.94629809 5.54114008,6.95583335 C5.46627676,6.97626604 5.3911422,6.99778847 5.31438017,7.01331732 C5.25389278,7.02557694 5.19204917,7.03238783 5.13101929,7.04165066 C5.07758423,7.04927886 5.02496292,7.0601763 4.97098538,7.06562501 C4.85407925,7.07733974 4.73554567,7.08333334 4.61538462,7.08333334 C4.61321466,7.08333334 4.61104472,7.08306091 4.60887476,7.08306091 C4.48030515,7.08278847 4.35390549,7.07488783 4.22913329,7.0609936 C4.20526383,7.05826924 4.18220809,7.05363783 4.15833863,7.0503686 C4.05201101,7.03647437 3.94676838,7.01876603 3.84369569,6.99560898 C3.82904852,6.99233975 3.81467259,6.98798078 3.79975418,6.98443911 C3.68637423,6.95719552 3.57489298,6.92477565 3.46612417,6.88717949 C3.46178427,6.88581731 3.45771561,6.88418269 3.45364695,6.88254808 C3.33565586,6.84141026 3.22119092,6.79373397 3.1091672,6.74060897 L3.1091672,6.74060897 L3.1091672,6.74060897 C2.4858487,6.44365385 1.96397542,5.96988782 1.6067472,5.38224359 C1.60050858,5.37189102 1.59399873,5.36126602 1.58776013,5.35091346 C1.54517484,5.27899038 1.50503073,5.20652243 1.46759907,5.13160257 C1.46407291,5.12451923 1.46081798,5.11716346 1.4572918,5.11008014 C1.22375079,4.63685897 1.08921382,4.10533654 1.08921382,3.54166666 C1.08921382,1.98660256 2.08874762,0.668557692 3.47643146,0.192612171 C3.485925,0.189070509 3.49487605,0.185528833 3.50436957,0.182259603 C3.66521722,0.128589727 3.83148973,0.0871794787 4.0018309,0.0572115257 C4.03193897,0.0514903718 4.06231828,0.0479487094 4.09269761,0.0430448633 C4.26358127,0.0174358932 4.43717737,0 4.61538462,0 C4.76592498,0 4.91321043,0.012532047 5.05859716,0.0307852607 C5.10009748,0.0362339829 5.14078407,0.0430448761 5.18174189,0.0495833376 C5.29349438,0.0678365385 5.40334816,0.0912660299 5.51157448,0.119599367 C5.54575121,0.128862184 5.58074168,0.136490397 5.61464717,0.14629809 C5.75108286,0.186891043 5.88426361,0.23456732 6.01364695,0.290416675 C6.03697394,0.300769244 6.05921593,0.313028859 6.08254291,0.323926291 C6.18941301,0.373237184 6.29302819,0.427724367 6.39393092,0.487115397 C6.42810765,0.507003214 6.46174189,0.527435906 6.4951049,0.54895835 C6.59736385,0.61379809 6.69609663,0.683269244 6.791032,0.758461551 C6.80676414,0.770721167 6.82358127,0.781618598 6.83904217,0.79442309 C6.94808223,0.883509628 7.05034118,0.979679504 7.14826023,1.08102566 C7.17077348,1.10445515 7.1919305,1.12951924 7.21363001,1.15349361 C7.2895783,1.236859 7.36145794,1.32322118 7.42926891,1.41339746 C7.45042594,1.44173079 7.47212545,1.46979169 7.49246875,1.49866989 C7.57465565,1.61527246 7.65168893,1.73514424 7.71977114,1.86128207 L7.71977114,1.86128207 L7.71977114,1.8615545 C7.98857385,2.36120192 8.14155541,2.93358974 8.14155541,3.54166666 C8.14155541,4.54314103 7.72600975,5.44572115 7.06064844,6.09003205 Z M7.58848909,3.75198718 C7.52447552,3.88629808 7.46019072,4.02060898 7.39590591,4.15519231 C7.32809494,4.13421474 7.26028395,4.11323718 7.19274422,4.09225962 C7.24916295,3.92307692 7.30558169,3.75416666 7.36227166,3.58498397 C7.40404322,3.55692308 7.44635727,3.52886217 7.48840008,3.50080128 C7.51335452,3.5275 7.53885144,3.55392628 7.56353463,3.58089743 L7.54454757,3.5427564 C7.55566857,3.54057691 7.56678956,3.53839743 7.57818181,3.53649037 C7.58225046,3.59451922 7.58631912,3.65254806 7.59065902,3.71057691 C7.59364272,3.65445512 7.5990676,3.5988782 7.5990676,3.54166666 C7.5990676,3.07334935 7.48921382,2.6320032 7.29852936,2.23697115 C6.7514304,2.21681089 6.20487392,2.19665065 5.65777497,2.17621795 C5.66591228,2.25604168 5.67459209,2.33613783 5.68300065,2.41623398 C5.56094088,2.46145834 5.43942361,2.50641026 5.31790633,2.55163462 C5.30515786,2.55599359 5.29240941,2.56008012 5.27993218,2.56443911 C5.31356642,2.62056091 5.34692942,2.67668269 5.38056367,2.73280449 C5.69927527,2.71863783 6.01771561,2.70447115 6.33615596,2.69057692 C6.46336935,2.96873397 6.59058275,3.24689103 6.7175249,3.52477565 C6.67575334,3.64274038 6.63343929,3.76043269 6.59166772,3.87839744 C6.39745708,3.78985578 6.20297519,3.70131411 6.0090358,3.61250001 C5.7532528,3.57054489 5.49774104,3.52831732 5.24222928,3.4863622 C5.16112735,3.73346155 5.08002543,3.98083335 4.99919474,4.22847758 C5.07595676,4.39275643 5.15299003,4.55703527 5.23002331,4.72131412 C5.38463233,4.74256412 5.54005509,4.76354169 5.69493536,4.78451924 C5.82214875,4.60362181 5.94936215,4.42272437 6.0763043,4.24182694 C6.16852722,4.7128686 6.26075016,5.18418271 6.35270184,5.65549681 C6.45414707,5.678109 6.55559228,5.70072117 6.65676627,5.72306092 C7.18759059,5.22177885 7.5347828,4.52842949 7.58848909,3.75198718 Z M1.63170163,3.54166666 C1.63170163,3.89038462 1.69408773,4.22411859 1.80312778,4.53524038 C2.12726425,4.81339743 2.45140072,5.09100962 2.77553719,5.36916666 C2.75193897,5.52690705 2.72834075,5.68464743 2.70474253,5.84266025 C2.87996609,5.9895032 3.07309176,6.11427883 3.27869463,6.21807691 C3.40672175,5.82440703 3.53502013,5.43073717 3.66304725,5.03706729 C3.59198135,4.95152242 3.5206442,4.86570511 3.4495783,4.78016025 C3.60852722,4.57828525 3.76801864,4.37641025 3.92696758,4.17426282 C3.27625344,3.98192308 2.62499682,3.78958332 1.97401144,3.59724359 C2.02988769,3.36730769 2.08576393,3.13737179 2.14164018,2.90716346 C2.53114643,2.84395834 2.92092393,2.7807532 3.31043017,2.71782051 C3.38312353,2.45383012 3.45581691,2.18983974 3.52851027,1.92639423 C3.27706717,1.73133012 3.02562407,1.53626603 2.77445221,1.34147435 C2.77906336,1.28644231 2.78367449,1.23113782 2.78855688,1.17610577 C2.08576393,1.72397435 1.63170163,2.57860577 1.63170163,3.54166666 Z M2.98792117,9.53525641 L2.71667727,8.71794872 L2.44543336,7.62820514 L2.98792118,7.35576924 L4.34414072,10.0801282 L4.34414072,13.0769231 L2.44543338,13.0769231 L2.44543338,11.1698718 L0.275482111,8.99038463 L0.00423818182,6.26602565 L0.546726001,6.26602565 L1.36045772,8.44551283 L2.98792117,9.53525641 Z"></path>
                    </g>
                </g>
            </g>
        </g>
    </g>
</svg>