<?xml version="1.0" encoding="UTF-8"?>
<svg width="20px" height="20px" viewBox="0 0 20 20" version="1.1" xmlns="http://www.w3.org/2000/svg" xmlns:xlink="http://www.w3.org/1999/xlink">
    <!-- Generator: Sketch 43 (38999) - http://www.bohemiancoding.com/sketch -->
    <title>新闻_icon</title>
    <desc>Created with Sketch.</desc>
    <defs></defs>
    <g id="Page-1" stroke="none" stroke-width="1" fill="none" fill-rule="evenodd">
        <g id="电信工程-首页" transform="translate(-400.000000, -608.000000)" fill="#CD0118">
            <g id="news_2" transform="translate(380.000000, 587.000000)">
                <g id="标题" transform="translate(20.000000, 20.000000)">
                    <g id="新闻_icon" transform="translate(0.000000, 1.000000)">
                        <path d="M10,0 C4.47716467,0 0,4.47715955 0,9.99998857 C0,15.5228404 4.47716467,20 10,20 C15.5228581,20 20,15.5228404 20,9.99998857 C20.0000228,4.47715955 15.5228811,0 10,0 L10,0 Z M4.67454512,4.84266158 L11.0650772,4.84266158 L11.0650772,9.8130774 L4.67454512,9.81307738 L4.67454512,4.84266158 L4.67454512,4.84266158 Z M15.0887812,15.0201437 L4.67454512,15.0201437 L4.67454512,13.6000576 L15.0887583,13.6000576 L15.0887583,15.0201437 L15.0887812,15.0201437 Z M15.0887812,12.416622 L4.67454512,12.416622 L4.67454512,10.996513 L15.0887583,10.996513 L15.0887583,12.416622 L15.0887812,12.416622 Z M15.0887812,9.81307738 L12.0118405,9.81307738 L12.0118405,9.10303432 L15.0887812,9.10303432 L15.0887812,9.81307738 L15.0887812,9.81307738 Z M15.0887812,7.68287959 L12.0118405,7.68287959 L12.0118405,6.97283652 L15.0887812,6.97283652 L15.0887812,7.68287959 L15.0887812,7.68287959 Z M15.0887812,5.5527275 L12.0118405,5.5527275 L12.0118405,4.84266154 L15.0887812,4.84266154 L15.0887812,5.5527275 L15.0887812,5.5527275 Z" id="Shape"></path>
                    </g>
                </g>
            </g>
        </g>
    </g>
</svg>