<?xml version="1.0" encoding="UTF-8"?>
<svg width="20px" height="20px" viewBox="0 0 20 20" version="1.1" xmlns="http://www.w3.org/2000/svg" xmlns:xlink="http://www.w3.org/1999/xlink">
    <!-- Generator: Sketch 43 (38999) - http://www.bohemiancoding.com/sketch -->
    <title>内网入口_icon</title>
    <desc>Created with Sketch.</desc>
    <defs></defs>
    <g id="Page-1" stroke="none" stroke-width="1" fill="none" fill-rule="evenodd">
        <g id="电信工程-首页" transform="translate(-1270.000000, -609.000000)" fill="#CD0118">
            <g id="内网入口2" transform="translate(1250.000000, 587.000000)">
                <g id="内网入口_icon" transform="translate(20.000000, 22.000000)">
                    <path d="M10.0011776,0 C4.48423945,0 0.00235525025,4.4818842 0.00235525025,9.99882237 C0.00235525025,15.5157605 4.48423945,19.9976447 10.0011776,19.9976447 C15.5181158,19.9976447 20,15.5157605 20,9.99882237 C20,4.4818842 15.5181158,0 10.0011776,0 Z M9.28089295,10.5039851 L5.71393529,10.5039851 L5.71393529,12.5645664 L9.2808929,12.5645664 L9.2808929,13.8812474 L11.8570848,11.4004746 L9.28089295,8.91977646 L9.28089295,10.5039848 L9.28089295,10.5039851 Z M5.71393473,5.00733417 L5.00095547,5.00733417 L5.00095547,9.81627828 L5.71393473,9.81627828 L6.42680961,9.81627828 L6.42680961,6.38147814 L13.5620295,6.38147814 L13.5620295,15.9994166 L14.2750087,15.9994166 L14.9890578,15.9994166 L14.9890578,6.38147814 L14.9890578,5.69383465 L14.9890578,5.00733438 L5.71393529,5.00733438 L5.71393473,5.00733417 Z M5.00095561,13.2510786 L5.00095561,15.999429 L5.71393487,15.999429 L6.42680975,15.999429 L6.42680975,13.2510788 L5.71393487,13.2510788 L5.00095604,13.2510788 L5.00095561,13.2510786 Z" id="Shape"></path>
                </g>
            </g>
        </g>
    </g>
</svg>